# Blender v2.90.1 OBJ File: 'laser.blend'
# www.blender.org
mtllib laser.mtl
o Цилиндр
v -0.493185 0.025175 0.000759
v 0.499835 0.025175 0.000758
v -0.182078 0.050000 0.000758
v -0.182078 0.048110 -0.008742
v -0.182078 0.042729 -0.016796
v -0.182078 0.034675 -0.022177
v -0.182078 0.025175 -0.024067
v -0.182078 0.015674 -0.022177
v -0.182078 0.007620 -0.016796
v -0.182078 0.002239 -0.008742
v -0.182078 0.000349 0.000758
v -0.182078 0.002239 0.010259
v -0.182078 0.007620 0.018313
v -0.182078 0.015674 0.023694
v -0.182078 0.025175 0.025584
v -0.182078 0.034675 0.023694
v -0.182078 0.042729 0.018313
v -0.182078 0.048110 0.010259
v 0.188821 0.050000 0.000758
v 0.188821 0.048110 -0.008742
v 0.188821 0.042729 -0.016796
v 0.188821 0.034675 -0.022177
v 0.188821 0.025175 -0.024067
v 0.188821 0.015674 -0.022177
v 0.188821 0.007620 -0.016796
v 0.188821 0.002239 -0.008742
v 0.188821 0.000349 0.000758
v 0.188821 0.002239 0.010259
v 0.188821 0.007620 0.018313
v 0.188821 0.015674 0.023694
v 0.188821 0.025175 0.025584
v 0.188821 0.034675 0.023694
v 0.188821 0.042729 0.018313
v 0.188821 0.048110 0.010259
v -0.244930 0.012762 0.000758
v 0.344328 0.037587 0.000758
v -0.337632 0.037587 0.000758
v 0.003371 0.048110 -0.008742
v 0.003371 0.042729 -0.016796
v 0.003371 0.034675 -0.022177
v 0.003371 0.025175 -0.024067
v 0.003371 0.015674 -0.022177
v 0.003371 0.007620 -0.016796
v 0.003371 0.002239 -0.008742
v 0.003371 0.000349 0.000758
v 0.003371 0.002239 0.010259
v 0.003371 0.007620 0.018313
v 0.003371 0.015674 0.023694
v 0.003371 0.025175 0.025584
v 0.003371 0.034675 0.023694
v 0.003371 0.042729 0.018313
v 0.003371 0.048110 0.010259
v -0.182078 0.049055 0.005509
v -0.182078 0.045420 0.014286
v -0.182078 0.038702 0.021004
v -0.182078 0.029925 0.024639
v -0.182078 0.020424 0.024639
v -0.182078 0.011647 0.021004
v -0.182078 0.004929 0.014286
v -0.182078 0.001294 0.005509
v -0.182078 0.001294 -0.003992
v -0.182078 0.004930 -0.012769
v -0.182078 0.011647 -0.019487
v -0.182078 0.020424 -0.023122
v -0.182078 0.029925 -0.023122
v -0.182078 0.038702 -0.019487
v -0.182078 0.045420 -0.012769
v -0.182078 0.049055 -0.003992
v -0.337632 0.036642 -0.003992
v -0.337632 0.033952 -0.008019
v -0.337632 0.029925 -0.010709
v -0.337632 0.025175 -0.011654
v -0.337632 0.020424 -0.010709
v -0.337632 0.016397 -0.008019
v -0.337632 0.013707 -0.003992
v -0.369058 0.018968 0.000758
v -0.337632 0.013707 0.005509
v -0.337632 0.016397 0.009536
v -0.337632 0.020424 0.012226
v -0.337632 0.025175 0.013171
v -0.337632 0.029925 0.012226
v -0.337632 0.033952 0.009536
v -0.337632 0.036642 0.005509
v 0.003371 0.050000 0.000758
v 0.188821 0.049055 0.005509
v 0.188821 0.045420 0.014286
v 0.188821 0.038702 0.021003
v 0.188821 0.029925 0.024639
v 0.188821 0.020424 0.024639
v 0.188821 0.011647 0.021003
v 0.188821 0.004929 0.014286
v 0.188821 0.001294 0.005509
v 0.188821 0.001294 -0.003992
v 0.188821 0.004929 -0.012769
v 0.188821 0.011647 -0.019487
v 0.188821 0.020424 -0.023122
v 0.188821 0.029925 -0.023122
v 0.188821 0.038702 -0.019487
v 0.188821 0.045420 -0.012769
v 0.188821 0.049055 -0.003992
v -0.213504 0.006555 0.000758
v 0.344328 0.036642 -0.003992
v 0.344328 0.033952 -0.008019
v 0.344328 0.029925 -0.010709
v 0.344328 0.025175 -0.011654
v 0.344328 0.020424 -0.010709
v 0.344328 0.016397 -0.008019
v 0.344328 0.013707 -0.003992
v 0.344328 0.012762 0.000758
v 0.344328 0.013707 0.005509
v 0.344328 0.016397 0.009536
v 0.344328 0.020424 0.012226
v 0.344328 0.025175 0.013171
v 0.344328 0.029925 0.012226
v 0.344328 0.033952 0.009536
v 0.344328 0.036642 0.005509
v 0.003371 0.049055 -0.003992
v 0.003371 0.045420 -0.012769
v 0.003371 0.038702 -0.019487
v 0.003371 0.029925 -0.023122
v 0.003371 0.020424 -0.023122
v 0.003371 0.011647 -0.019487
v 0.003371 0.004929 -0.012769
v 0.003371 0.001294 -0.003992
v 0.003371 0.001294 0.005509
v 0.003371 0.004929 0.014286
v 0.003371 0.011647 0.021004
v 0.003371 0.020424 0.024639
v 0.003371 0.029925 0.024639
v 0.003371 0.038702 0.021004
v 0.003371 0.045420 0.014286
v 0.003371 0.049055 0.005509
v -0.275568 0.010131 -0.001617
v -0.275568 0.010131 0.003134
vt 1.000000 0.875000
vt 0.968750 0.937500
vt 0.968750 0.875000
vt 0.937500 0.875000
vt 0.906250 0.937500
vt 0.906250 0.875000
vt 0.875000 0.875000
vt 0.843750 0.937500
vt 0.843750 0.875000
vt 0.812500 0.875000
vt 0.781250 0.937500
vt 0.781250 0.875000
vt 0.750000 0.875000
vt 0.718750 0.937500
vt 0.718750 0.875000
vt 0.687500 0.875000
vt 0.656250 0.937500
vt 0.656250 0.875000
vt 0.625000 0.875000
vt 0.593750 0.937500
vt 0.593750 0.875000
vt 0.562500 0.875000
vt 0.531250 0.937500
vt 0.531250 0.875000
vt 0.500000 0.875000
vt 0.468750 0.937500
vt 0.468750 0.875000
vt 0.437500 0.875000
vt 0.406250 0.937500
vt 0.406250 0.875000
vt 0.375000 0.875000
vt 0.343750 0.937500
vt 0.343750 0.875000
vt 0.312500 0.875000
vt 0.281250 0.937500
vt 0.281250 0.875000
vt 0.250000 0.875000
vt 0.218750 0.937500
vt 0.218750 0.875000
vt 0.187500 0.875000
vt 0.156250 0.937500
vt 0.156250 0.875000
vt 0.125000 0.875000
vt 0.093750 0.937500
vt 0.093750 0.875000
vt 0.062500 0.875000
vt 0.031250 0.937500
vt 0.031250 0.875000
vt 0.062500 0.500000
vt 0.062500 0.625000
vt 0.031250 0.625000
vt 0.125000 0.500000
vt 0.125000 0.625000
vt 0.093750 0.625000
vt 0.187500 0.500000
vt 0.187500 0.625000
vt 0.156250 0.625000
vt 0.250000 0.500000
vt 0.250000 0.625000
vt 0.218750 0.625000
vt 0.312500 0.500000
vt 0.312500 0.625000
vt 0.281250 0.625000
vt 0.375000 0.500000
vt 0.375000 0.625000
vt 0.343750 0.625000
vt 0.437500 0.500000
vt 0.437500 0.625000
vt 0.406250 0.625000
vt 0.484375 0.656250
vt 0.500000 0.687500
vt 0.500000 0.750000
vt 0.468750 0.750000
vt 0.539062 0.656250
vt 0.531250 0.750000
vt 0.515625 0.687500
vt 0.625000 0.500000
vt 0.625000 0.625000
vt 0.593750 0.625000
vt 0.687500 0.500000
vt 0.687500 0.625000
vt 0.656250 0.625000
vt 0.750000 0.500000
vt 0.750000 0.625000
vt 0.718750 0.625000
vt 0.812500 0.500000
vt 0.812500 0.625000
vt 0.781250 0.625000
vt 0.875000 0.500000
vt 0.875000 0.625000
vt 0.843750 0.625000
vt 0.937500 0.500000
vt 0.937500 0.625000
vt 0.906250 0.625000
vt 1.000000 0.500000
vt 1.000000 0.625000
vt 0.968750 0.625000
vt 0.031250 0.812500
vt 0.000000 0.875000
vt 0.000000 0.812500
vt 0.093750 0.812500
vt 0.062500 0.812500
vt 0.156250 0.812500
vt 0.125000 0.812500
vt 0.218750 0.812500
vt 0.187500 0.812500
vt 0.281250 0.812500
vt 0.250000 0.812500
vt 0.343750 0.812500
vt 0.312500 0.812500
vt 0.406250 0.812500
vt 0.375000 0.812500
vt 0.468750 0.812500
vt 0.437500 0.812500
vt 0.531250 0.812500
vt 0.500000 0.812500
vt 0.593750 0.812500
vt 0.562500 0.812500
vt 0.656250 0.812500
vt 0.625000 0.812500
vt 0.718750 0.812500
vt 0.687500 0.812500
vt 0.781250 0.812500
vt 0.750000 0.812500
vt 0.843750 0.812500
vt 0.812500 0.812500
vt 0.906250 0.812500
vt 0.875000 0.812500
vt 0.968750 0.812500
vt 0.937500 0.812500
vt 0.968750 0.750000
vt 0.937500 0.750000
vt 1.000000 0.750000
vt 1.000000 0.812500
vt 0.906250 0.750000
vt 0.875000 0.750000
vt 0.843750 0.750000
vt 0.812500 0.750000
vt 0.781250 0.750000
vt 0.750000 0.750000
vt 0.718750 0.750000
vt 0.687500 0.750000
vt 0.656250 0.750000
vt 0.625000 0.750000
vt 0.593750 0.750000
vt 0.562500 0.750000
vt 0.437500 0.750000
vt 0.406250 0.750000
vt 0.375000 0.750000
vt 0.343750 0.750000
vt 0.312500 0.750000
vt 0.281250 0.750000
vt 0.250000 0.750000
vt 0.218750 0.750000
vt 0.187500 0.750000
vt 0.156250 0.750000
vt 0.125000 0.750000
vt 0.093750 0.750000
vt 0.062500 0.750000
vt 0.031250 0.750000
vt 0.000000 0.750000
vt 0.546875 0.562500
vt 0.531250 0.625000
vt 0.562500 0.500000
vt 0.562500 0.625000
vt 0.468750 0.625000
vt 0.500000 0.500000
vt 0.500000 0.562500
vt 0.500000 0.625000
vt 0.000000 0.937500
vt 0.000000 1.000000
vt 0.062500 0.937500
vt 0.062500 1.000000
vt 0.125000 0.937500
vt 0.125000 1.000000
vt 0.187500 0.937500
vt 0.187500 1.000000
vt 0.250000 0.937500
vt 0.250000 1.000000
vt 0.312500 0.937500
vt 0.312500 1.000000
vt 0.375000 0.937500
vt 0.375000 1.000000
vt 0.437500 0.937500
vt 0.437500 1.000000
vt 0.500000 0.937500
vt 0.500000 1.000000
vt 0.562500 0.937500
vt 0.562500 1.000000
vt 0.625000 0.937500
vt 0.625000 1.000000
vt 0.687500 0.937500
vt 0.687500 1.000000
vt 0.750000 0.937500
vt 0.750000 1.000000
vt 0.812500 0.937500
vt 0.812500 1.000000
vt 0.875000 0.937500
vt 0.875000 1.000000
vt 0.937500 0.937500
vt 0.937500 1.000000
vn 0.0780 0.9778 -0.1945
vn 0.0780 0.8289 -0.5539
vn 0.0780 0.5539 -0.8289
vn 0.0780 0.1945 -0.9778
vn 0.0780 -0.1945 -0.9778
vn 0.0780 -0.5539 -0.8289
vn 0.0780 -0.8289 -0.5539
vn 0.0780 -0.9778 -0.1945
vn 0.0780 -0.9778 0.1945
vn 0.0780 -0.8289 0.5539
vn 0.0780 -0.5539 0.8289
vn 0.0780 -0.1945 0.9778
vn 0.0780 0.1945 0.9778
vn 0.0780 0.5539 0.8289
vn 0.0780 0.8289 0.5539
vn 0.0780 0.9778 0.1945
vn -0.0780 0.9778 0.1945
vn -0.0780 0.8289 0.5539
vn -0.0780 0.5539 0.8289
vn -0.0780 0.1945 0.9778
vn -0.0780 -0.1945 0.9778
vn -0.0780 -0.5539 0.8289
vn -0.0780 -0.8289 0.5539
vn -0.1065 -0.9368 -0.3332
vn -0.1065 -0.9368 0.3332
vn -0.0780 -0.8289 -0.5539
vn -0.0780 -0.5539 -0.8289
vn -0.0780 -0.1945 -0.9778
vn -0.0780 0.1945 -0.9778
vn -0.0780 0.5539 -0.8289
vn -0.0780 0.8289 -0.5539
vn -0.0780 0.9778 -0.1945
vn 0.0000 0.9808 0.1951
vn 0.0000 0.8315 0.5556
vn 0.0000 0.5556 0.8315
vn 0.0000 0.1951 0.9808
vn 0.0000 -0.1951 0.9808
vn 0.0000 -0.5556 0.8315
vn 0.0000 -0.8315 0.5556
vn -0.0000 -0.9808 0.1951
vn -0.0000 -0.9808 -0.1951
vn -0.0000 -0.8315 -0.5556
vn -0.0000 -0.5556 -0.8315
vn -0.0000 -0.1951 -0.9808
vn -0.0000 0.1951 -0.9808
vn -0.0000 0.5556 -0.8315
vn -0.0000 0.8315 -0.5556
vn 0.0000 0.9808 -0.1951
vn -0.0338 -0.4236 0.9052
vn -0.0503 -0.8178 0.5732
vn -0.0794 -0.9950 0.0603
vn -0.0794 -0.9950 -0.0603
vn -0.0503 -0.8178 -0.5732
vn -0.0338 -0.4236 -0.9052
usemtl Материал
s off
f 19/1/1 36/2/1 100/3/1
f 20/4/2 102/5/2 99/6/2
f 21/7/3 103/8/3 98/9/3
f 22/10/4 104/11/4 97/12/4
f 23/13/5 105/14/5 96/15/5
f 24/16/6 106/17/6 95/18/6
f 25/19/7 107/20/7 94/21/7
f 26/22/8 108/23/8 93/24/8
f 27/25/9 109/26/9 92/27/9
f 28/28/10 110/29/10 91/30/10
f 29/31/11 111/32/11 90/33/11
f 30/34/12 112/35/12 89/36/12
f 31/37/13 113/38/13 88/39/13
f 32/40/14 114/41/14 87/42/14
f 33/43/15 115/44/15 86/45/15
f 34/46/16 116/47/16 85/48/16
f 1/49/17 83/50/17 37/51/17
f 1/52/18 82/53/18 83/54/18
f 1/55/19 81/56/19 82/57/19
f 1/58/20 80/59/20 81/60/20
f 1/61/21 79/62/21 80/63/21
f 1/64/22 78/65/22 79/66/22
f 1/67/23 77/68/23 78/69/23
f 134/70/24 101/71/24 11/72/24 60/73/24
f 133/74/25 61/75/25 11/72/25 101/76/25
f 1/77/26 74/78/26 75/79/26
f 1/80/27 73/81/27 74/82/27
f 1/83/28 72/84/28 73/85/28
f 1/86/29 71/87/29 72/88/29
f 1/89/30 70/90/30 71/91/30
f 1/92/31 69/93/31 70/94/31
f 1/95/32 37/96/32 69/97/32
f 132/98/33 85/48/33 19/99/33 84/100/33
f 131/101/34 86/45/34 34/46/34 52/102/34
f 130/103/35 87/42/35 33/43/35 51/104/35
f 129/105/36 88/39/36 32/40/36 50/106/36
f 128/107/37 89/36/37 31/37/37 49/108/37
f 127/109/38 90/33/38 30/34/38 48/110/38
f 126/111/39 91/30/39 29/31/39 47/112/39
f 125/113/40 92/27/40 28/28/40 46/114/40
f 124/115/41 93/24/41 27/25/41 45/116/41
f 123/117/42 94/21/42 26/22/42 44/118/42
f 122/119/43 95/18/43 25/19/43 43/120/43
f 121/121/44 96/15/44 24/16/44 42/122/44
f 120/123/45 97/12/45 23/13/45 41/124/45
f 119/125/46 98/9/46 22/10/46 40/126/46
f 118/127/47 99/6/47 21/7/47 39/128/47
f 117/129/48 100/3/48 20/4/48 38/130/48
f 68/131/48 117/129/48 38/130/48 4/132/48
f 3/133/48 84/134/48 117/129/48 68/131/48
f 84/134/48 19/1/48 100/3/48 117/129/48
f 67/135/47 118/127/47 39/128/47 5/136/47
f 4/132/47 38/130/47 118/127/47 67/135/47
f 38/130/47 20/4/47 99/6/47 118/127/47
f 66/137/46 119/125/46 40/126/46 6/138/46
f 5/136/46 39/128/46 119/125/46 66/137/46
f 39/128/46 21/7/46 98/9/46 119/125/46
f 65/139/45 120/123/45 41/124/45 7/140/45
f 6/138/45 40/126/45 120/123/45 65/139/45
f 40/126/45 22/10/45 97/12/45 120/123/45
f 64/141/44 121/121/44 42/122/44 8/142/44
f 7/140/44 41/124/44 121/121/44 64/141/44
f 41/124/44 23/13/44 96/15/44 121/121/44
f 63/143/43 122/119/43 43/120/43 9/144/43
f 8/142/43 42/122/43 122/119/43 63/143/43
f 42/122/43 24/16/43 95/18/43 122/119/43
f 62/145/42 123/117/42 44/118/42 10/146/42
f 9/144/42 43/120/42 123/117/42 62/145/42
f 43/120/42 25/19/42 94/21/42 123/117/42
f 61/75/41 124/115/41 45/116/41 11/72/41
f 10/146/41 44/118/41 124/115/41 61/75/41
f 44/118/41 26/22/41 93/24/41 124/115/41
f 60/73/40 125/113/40 46/114/40 12/147/40
f 11/72/40 45/116/40 125/113/40 60/73/40
f 45/116/40 27/25/40 92/27/40 125/113/40
f 59/148/39 126/111/39 47/112/39 13/149/39
f 12/147/39 46/114/39 126/111/39 59/148/39
f 46/114/39 28/28/39 91/30/39 126/111/39
f 58/150/38 127/109/38 48/110/38 14/151/38
f 13/149/38 47/112/38 127/109/38 58/150/38
f 47/112/38 29/31/38 90/33/38 127/109/38
f 57/152/37 128/107/37 49/108/37 15/153/37
f 14/151/37 48/110/37 128/107/37 57/152/37
f 48/110/37 30/34/37 89/36/37 128/107/37
f 56/154/36 129/105/36 50/106/36 16/155/36
f 15/153/36 49/108/36 129/105/36 56/154/36
f 49/108/36 31/37/36 88/39/36 129/105/36
f 55/156/35 130/103/35 51/104/35 17/157/35
f 16/155/35 50/106/35 130/103/35 55/156/35
f 50/106/35 32/40/35 87/42/35 130/103/35
f 54/158/34 131/101/34 52/102/34 18/159/34
f 17/157/34 51/104/34 131/101/34 54/158/34
f 51/104/34 33/43/34 86/45/34 131/101/34
f 53/160/33 132/98/33 84/100/33 3/161/33
f 18/159/33 52/102/33 132/98/33 53/160/33
f 52/102/33 34/46/33 85/48/33 132/98/33
f 69/97/32 68/131/32 4/132/32
f 69/97/32 37/96/32 68/131/32
f 37/96/32 3/133/32 68/131/32
f 70/94/31 67/135/31 5/136/31
f 70/94/31 69/93/31 67/135/31
f 69/93/31 4/132/31 67/135/31
f 71/91/30 66/137/30 6/138/30
f 71/91/30 70/90/30 66/137/30
f 70/90/30 5/136/30 66/137/30
f 72/88/29 65/139/29 7/140/29
f 72/88/29 71/87/29 65/139/29
f 71/87/29 6/138/29 65/139/29
f 73/85/28 64/141/28 8/142/28
f 73/85/28 72/84/28 64/141/28
f 72/84/28 7/140/28 64/141/28
f 74/82/27 63/143/27 9/144/27
f 74/82/27 73/81/27 63/143/27
f 73/81/27 8/142/27 63/143/27
f 75/79/26 62/145/26 10/146/26
f 75/79/26 74/78/26 62/145/26
f 74/78/26 9/144/26 62/145/26
f 76/162/49 133/74/49 101/76/49 35/163/49
f 1/164/50 75/165/50 133/74/50 76/162/50
f 75/165/51 10/146/51 61/75/51 133/74/51
f 77/166/52 134/70/52 60/73/52 12/147/52
f 1/167/53 76/168/53 134/70/53 77/166/53
f 76/168/54 35/169/54 101/71/54 134/70/54
f 78/69/23 59/148/23 13/149/23
f 78/69/23 77/68/23 59/148/23
f 77/68/23 12/147/23 59/148/23
f 79/66/22 58/150/22 14/151/22
f 79/66/22 78/65/22 58/150/22
f 78/65/22 13/149/22 58/150/22
f 80/63/21 57/152/21 15/153/21
f 80/63/21 79/62/21 57/152/21
f 79/62/21 14/151/21 57/152/21
f 81/60/20 56/154/20 16/155/20
f 81/60/20 80/59/20 56/154/20
f 80/59/20 15/153/20 56/154/20
f 82/57/19 55/156/19 17/157/19
f 82/57/19 81/56/19 55/156/19
f 81/56/19 16/155/19 55/156/19
f 83/54/18 54/158/18 18/159/18
f 83/54/18 82/53/18 54/158/18
f 82/53/18 17/157/18 54/158/18
f 37/51/17 53/160/17 3/161/17
f 37/51/17 83/50/17 53/160/17
f 83/50/17 18/159/17 53/160/17
f 85/48/16 36/170/16 19/99/16
f 85/48/16 116/47/16 36/170/16
f 116/47/16 2/171/16 36/170/16
f 86/45/15 116/172/15 34/46/15
f 86/45/15 115/44/15 116/172/15
f 115/44/15 2/173/15 116/172/15
f 87/42/14 115/174/14 33/43/14
f 87/42/14 114/41/14 115/174/14
f 114/41/14 2/175/14 115/174/14
f 88/39/13 114/176/13 32/40/13
f 88/39/13 113/38/13 114/176/13
f 113/38/13 2/177/13 114/176/13
f 89/36/12 113/178/12 31/37/12
f 89/36/12 112/35/12 113/178/12
f 112/35/12 2/179/12 113/178/12
f 90/33/11 112/180/11 30/34/11
f 90/33/11 111/32/11 112/180/11
f 111/32/11 2/181/11 112/180/11
f 91/30/10 111/182/10 29/31/10
f 91/30/10 110/29/10 111/182/10
f 110/29/10 2/183/10 111/182/10
f 92/27/9 110/184/9 28/28/9
f 92/27/9 109/26/9 110/184/9
f 109/26/9 2/185/9 110/184/9
f 93/24/8 109/186/8 27/25/8
f 93/24/8 108/23/8 109/186/8
f 108/23/8 2/187/8 109/186/8
f 94/21/7 108/188/7 26/22/7
f 94/21/7 107/20/7 108/188/7
f 107/20/7 2/189/7 108/188/7
f 95/18/6 107/190/6 25/19/6
f 95/18/6 106/17/6 107/190/6
f 106/17/6 2/191/6 107/190/6
f 96/15/5 106/192/5 24/16/5
f 96/15/5 105/14/5 106/192/5
f 105/14/5 2/193/5 106/192/5
f 97/12/4 105/194/4 23/13/4
f 97/12/4 104/11/4 105/194/4
f 104/11/4 2/195/4 105/194/4
f 98/9/3 104/196/3 22/10/3
f 98/9/3 103/8/3 104/196/3
f 103/8/3 2/197/3 104/196/3
f 99/6/2 103/198/2 21/7/2
f 99/6/2 102/5/2 103/198/2
f 102/5/2 2/199/2 103/198/2
f 100/3/1 102/200/1 20/4/1
f 100/3/1 36/2/1 102/200/1
f 36/2/1 2/201/1 102/200/1
